<svg xmlns="http://www.w3.org/2000/svg" viewBox="0 0 200 200" width="200" height="200">
  <defs>
    <linearGradient id="botGradient" x1="0%" y1="0%" x2="100%" y2="100%">
      <stop offset="0%" style="stop-color:#4a90e2;stop-opacity:1" />
      <stop offset="50%" style="stop-color:#00e6a8;stop-opacity:1" />
      <stop offset="100%" style="stop-color:#d633ff;stop-opacity:1" />
    </linearGradient>
    <linearGradient id="eyeGradient" x1="0%" y1="0%" x2="100%" y2="100%">
      <stop offset="0%" style="stop-color:#00e6a8;stop-opacity:1" />
      <stop offset="100%" style="stop-color:#4a90e2;stop-opacity:1" />
    </linearGradient>
    <filter id="glow" x="-50%" y="-50%" width="200%" height="200%">
      <feGaussianBlur stdDeviation="3" result="coloredBlur"/>
      <feMerge> 
        <feMergeNode in="coloredBlur"/>
        <feMergeNode in="SourceGraphic"/>
      </feMerge>
    </filter>
  </defs>
  
  <!-- Background circle -->
  <circle cx="100" cy="100" r="95" fill="url(#botGradient)" filter="url(#glow)"/>
  
  <!-- Inner circle -->
  <circle cx="100" cy="100" r="75" fill="rgba(255,255,255,0.1)" stroke="rgba(255,255,255,0.3)" stroke-width="2"/>
  
  <!-- Robot head -->
  <rect x="60" y="60" width="80" height="70" rx="15" ry="15" fill="rgba(255,255,255,0.9)" stroke="rgba(74,144,226,0.5)" stroke-width="2"/>
  
  <!-- Eyes -->
  <circle cx="80" cy="85" r="8" fill="url(#eyeGradient)"/>
  <circle cx="120" cy="85" r="8" fill="url(#eyeGradient)"/>
  
  <!-- Eye pupils -->
  <circle cx="80" cy="85" r="3" fill="#ffffff"/>
  <circle cx="120" cy="85" r="3" fill="#ffffff"/>
  
  <!-- Mouth -->
  <rect x="85" y="105" width="30" height="8" rx="4" ry="4" fill="url(#eyeGradient)"/>
  
  <!-- Antenna -->
  <line x1="100" y1="60" x2="100" y2="45" stroke="rgba(74,144,226,0.8)" stroke-width="3" stroke-linecap="round"/>
  <circle cx="100" cy="45" r="4" fill="#00e6a8"/>
  
  <!-- Side panels -->
  <rect x="45" y="75" width="8" height="15" rx="4" ry="4" fill="rgba(255,255,255,0.7)"/>
  <rect x="147" y="75" width="8" height="15" rx="4" ry="4" fill="rgba(255,255,255,0.7)"/>
  
  <!-- Circuit pattern -->
  <g stroke="rgba(74,144,226,0.3)" stroke-width="1" fill="none" opacity="0.6">
    <path d="M65 95 L75 95 L75 100 L85 100"/>
    <path d="M115 100 L125 100 L125 95 L135 95"/>
    <circle cx="75" cy="100" r="2" fill="rgba(74,144,226,0.5)"/>
    <circle cx="125" cy="100" r="2" fill="rgba(74,144,226,0.5)"/>
  </g>
  
  <!-- Outer glow effect -->
  <circle cx="100" cy="100" r="90" fill="none" stroke="url(#botGradient)" stroke-width="2" opacity="0.5"/>
</svg>