<svg xmlns="http://www.w3.org/2000/svg" viewBox="0 0 800 400" width="800" height="400">
  <defs>
    <linearGradient id="heroGradient1" x1="0%" y1="0%" x2="100%" y2="100%">
      <stop offset="0%" style="stop-color:#4A90E2;stop-opacity:0.8" />
      <stop offset="50%" style="stop-color:#D633FF;stop-opacity:0.6" />
      <stop offset="100%" style="stop-color:#00E6A8;stop-opacity:0.8" />
    </linearGradient>
    <linearGradient id="heroGradient2" x1="0%" y1="100%" x2="100%" y2="0%">
      <stop offset="0%" style="stop-color:#00E6A8;stop-opacity:0.6" />
      <stop offset="100%" style="stop-color:#4A90E2;stop-opacity:0.8" />
    </linearGradient>
    <filter id="glow">
      <feGaussianBlur stdDeviation="3" result="coloredBlur"/>
      <feMerge> 
        <feMergeNode in="coloredBlur"/>
        <feMergeNode in="SourceGraphic"/>
      </feMerge>
    </filter>
  </defs>
  
  <!-- Background -->
  <rect width="800" height="400" fill="url(#heroGradient1)" opacity="0.1"/>
  
  <!-- Abstract tech shapes -->
  <g filter="url(#glow)">
    <!-- Main server/cloud icon -->
    <rect x="150" y="100" width="120" height="80" rx="10" fill="url(#heroGradient1)" opacity="0.7"/>
    <rect x="160" y="110" width="100" height="8" rx="4" fill="#4A90E2"/>
    <rect x="160" y="125" width="80" height="8" rx="4" fill="#D633FF"/>
    <rect x="160" y="140" width="90" height="8" rx="4" fill="#00E6A8"/>
    <rect x="160" y="155" width="70" height="8" rx="4" fill="#4A90E2"/>
    
    <!-- Network nodes -->
    <circle cx="100" cy="150" r="15" fill="#00E6A8" opacity="0.8"/>
    <circle cx="350" cy="120" r="12" fill="#D633FF" opacity="0.8"/>
    <circle cx="320" cy="200" r="18" fill="#4A90E2" opacity="0.8"/>
    <circle cx="450" cy="180" r="10" fill="#00E6A8" opacity="0.8"/>
    
    <!-- Connection lines -->
    <line x1="115" y1="150" x2="150" y2="140" stroke="#4A90E2" stroke-width="2" opacity="0.6"/>
    <line x1="270" y1="140" x2="338" y2="120" stroke="#D633FF" stroke-width="2" opacity="0.6"/>
    <line x1="270" y1="160" x2="302" y2="200" stroke="#00E6A8" stroke-width="2" opacity="0.6"/>
    <line x1="338" y1="200" x2="440" y2="180" stroke="#4A90E2" stroke-width="2" opacity="0.6"/>
    
    <!-- Code/deployment symbols -->
    <g transform="translate(500, 80)">
      <rect width="60" height="40" rx="5" fill="none" stroke="#4A90E2" stroke-width="2"/>
      <text x="30" y="25" text-anchor="middle" font-family="monospace" font-size="8" fill="#00E6A8">&lt;/&gt;</text>
    </g>
    
    <g transform="translate(480, 250)">
      <polygon points="0,20 20,0 40,20 20,40" fill="url(#heroGradient2)" opacity="0.7"/>
      <text x="20" y="25" text-anchor="middle" font-family="monospace" font-size="6" fill="#fff">AI</text>
    </g>
    
    <!-- Floating particles -->
    <circle cx="80" cy="80" r="3" fill="#D633FF" opacity="0.6">
      <animate attributeName="cy" values="80;60;80" dur="3s" repeatCount="indefinite"/>
    </circle>
    <circle cx="600" cy="100" r="2" fill="#00E6A8" opacity="0.8">
      <animate attributeName="cy" values="100;120;100" dur="4s" repeatCount="indefinite"/>
    </circle>
    <circle cx="650" cy="300" r="4" fill="#4A90E2" opacity="0.5">
      <animate attributeName="cy" values="300;280;300" dur="2.5s" repeatCount="indefinite"/>
    </circle>
    
    <!-- Abstract cloud -->
    <g transform="translate(550, 180)">
      <ellipse cx="25" cy="15" rx="25" ry="15" fill="url(#heroGradient1)" opacity="0.4"/>
      <ellipse cx="15" cy="10" rx="15" ry="10" fill="url(#heroGradient2)" opacity="0.3"/>
      <ellipse cx="35" cy="10" rx="15" ry="10" fill="url(#heroGradient1)" opacity="0.3"/>
    </g>
    
    <!-- Data flow lines -->
    <path d="M 50 250 Q 200 280 400 250 T 750 260" stroke="#00E6A8" stroke-width="1" fill="none" opacity="0.4">
      <animate attributeName="stroke-dasharray" values="0,1000;1000,0" dur="6s" repeatCount="indefinite"/>
    </path>
    <path d="M 70 300 Q 250 320 500 300 T 780 310" stroke="#4A90E2" stroke-width="1" fill="none" opacity="0.3">
      <animate attributeName="stroke-dasharray" values="0,1000;1000,0" dur="8s" repeatCount="indefinite"/>
    </path>
  </g>
  
  <!-- Tech pattern overlay -->
  <g opacity="0.1">
    <pattern id="techPattern" patternUnits="userSpaceOnUse" width="20" height="20">
      <circle cx="10" cy="10" r="1" fill="#4A90E2"/>
      <line x1="0" y1="10" x2="20" y2="10" stroke="#D633FF" stroke-width="0.5"/>
      <line x1="10" y1="0" x2="10" y2="20" stroke="#00E6A8" stroke-width="0.5"/>
    </pattern>
    <rect width="800" height="400" fill="url(#techPattern)"/>
  </g>
</svg>
